<?xml version="1.0" encoding="UTF-8" standalone="no"?>
<!-- Created with Inkscape (http://www.inkscape.org/) -->

<svg
   xmlns:dc="http://purl.org/dc/elements/1.1/"
   xmlns:cc="http://creativecommons.org/ns#"
   xmlns:rdf="http://www.w3.org/1999/02/22-rdf-syntax-ns#"
   xmlns:svg="http://www.w3.org/2000/svg"
   xmlns="http://www.w3.org/2000/svg"
   xmlns:sodipodi="http://sodipodi.sourceforge.net/DTD/sodipodi-0.dtd"
   xmlns:inkscape="http://www.inkscape.org/namespaces/inkscape"
   width="100"
   height="100"
   viewBox="0 0 100 100"
   id="svg5307"
   version="1.1"
   inkscape:version="0.91 r13725"
   sodipodi:docname="icon-email.svg">
  <defs
     id="defs5309" />
  <sodipodi:namedview
     id="base"
     pagecolor="#ffffff"
     bordercolor="#666666"
     borderopacity="1.0"
     inkscape:pageopacity="0.0"
     inkscape:pageshadow="2"
     inkscape:zoom="3.959798"
     inkscape:cx="76.849468"
     inkscape:cy="17.300247"
     inkscape:document-units="px"
     inkscape:current-layer="g4340"
     showgrid="false"
     units="px"
     inkscape:window-width="1440"
     inkscape:window-height="837"
     inkscape:window-x="-8"
     inkscape:window-y="-8"
     inkscape:window-maximized="1" />
  <metadata
     id="metadata5312">
    <rdf:RDF>
      <cc:Work
         rdf:about="">
        <dc:format>image/svg+xml</dc:format>
        <dc:type
           rdf:resource="http://purl.org/dc/dcmitype/StillImage" />
        <dc:title></dc:title>
      </cc:Work>
    </rdf:RDF>
  </metadata>
  <g
     inkscape:label="Camada 1"
     inkscape:groupmode="layer"
     id="layer1"
     transform="translate(0,-952.36216)">
    <g
       id="g4615"
       transform="matrix(2.8313845,0,0,2.9033461,151.42891,1167.5203)">
      <g
         id="g4575">
        <g
           id="g4340"
           transform="matrix(0.3531841,0,0,0.34443017,-14.632032,-169.39284)">
          <g
             id="g4267"
             style="fill:#ffffff"
             transform="matrix(0.12587765,0,0,0.12587765,-80.732571,297.34393)" />
          <g
             id="g4269"
             style="fill:#ffffff"
             transform="matrix(0.12587765,0,0,0.12587765,-80.732571,297.34393)" />
          <g
             id="g4271"
             style="fill:#ffffff"
             transform="matrix(0.12587765,0,0,0.12587765,-80.732571,297.34393)" />
          <g
             id="g4273"
             style="fill:#ffffff"
             transform="matrix(0.12587765,0,0,0.12587765,-80.732571,297.34393)" />
          <g
             id="g4275"
             style="fill:#ffffff"
             transform="matrix(0.12587765,0,0,0.12587765,-80.732571,297.34393)" />
          <g
             id="g4277"
             style="fill:#ffffff"
             transform="matrix(0.12587765,0,0,0.12587765,-80.732571,297.34393)" />
          <g
             id="g4279"
             style="fill:#ffffff"
             transform="matrix(0.12587765,0,0,0.12587765,-80.732571,297.34393)" />
          <g
             id="g4281"
             style="fill:#ffffff"
             transform="matrix(0.12587765,0,0,0.12587765,-80.732571,297.34393)" />
          <g
             id="g4283"
             style="fill:#ffffff"
             transform="matrix(0.12587765,0,0,0.12587765,-80.732571,297.34393)" />
          <g
             id="g4285"
             style="fill:#ffffff"
             transform="matrix(0.12587765,0,0,0.12587765,-80.732571,297.34393)" />
          <g
             id="g4287"
             style="fill:#ffffff"
             transform="matrix(0.12587765,0,0,0.12587765,-80.732571,297.34393)" />
          <g
             id="g4289"
             style="fill:#ffffff"
             transform="matrix(0.12587765,0,0,0.12587765,-80.732571,297.34393)" />
          <g
             id="g4291"
             style="fill:#ffffff"
             transform="matrix(0.12587765,0,0,0.12587765,-80.732571,297.34393)" />
          <g
             id="g4293"
             style="fill:#ffffff"
             transform="matrix(0.12587765,0,0,0.12587765,-80.732571,297.34393)" />
          <g
             id="g4295"
             style="fill:#ffffff"
             transform="matrix(0.12587765,0,0,0.12587765,-80.732571,297.34393)" />
          <path
             style="opacity:1;fill:#828282;fill-opacity:1;stroke:none;stroke-width:2;stroke-linecap:round;stroke-linejoin:round;stroke-miterlimit:4;stroke-dasharray:none;stroke-opacity:1"
             d="M 50 0 A 49.999998 50 0 0 0 0 50 A 49.999998 50 0 0 0 50 100 A 49.999998 50 0 0 0 100 50 A 49.999998 50 0 0 0 50 0 z M 25.861328 26.912109 L 74.136719 26.912109 C 75.557413 26.912109 76.787645 27.425395 77.826172 28.453125 C 78.864813 29.480625 79.384766 30.716946 79.384766 32.160156 C 79.384766 33.887206 78.849298 35.537748 77.777344 37.111328 C 76.706195 38.685598 75.373328 40.029961 73.777344 41.144531 C 65.55689 46.851201 60.440805 50.403754 58.429688 51.802734 C 58.211094 51.956084 57.745504 52.290418 57.035156 52.804688 C 56.32435 53.318836 55.733829 53.733861 55.263672 54.050781 C 54.793515 54.367471 54.225291 54.721354 53.558594 55.115234 C 52.892241 55.507974 52.263908 55.80427 51.673828 56 C 51.083404 56.1972 50.535982 56.294922 50.033203 56.294922 L 50 56.294922 L 49.966797 56.294922 C 49.464017 56.294922 48.91855 56.19735 48.328125 56 C 47.737816 55.80427 47.108333 55.508314 46.441406 55.115234 C 45.77425 54.721814 45.206485 54.367591 44.736328 54.050781 C 44.266515 53.733861 43.675421 53.318836 42.964844 52.804688 C 42.254382 52.290878 41.790861 51.956084 41.572266 51.802734 C 39.582628 50.403754 36.717258 48.409109 32.978516 45.818359 C 29.239888 43.227619 26.999288 41.669141 26.255859 41.144531 C 24.900525 40.226391 23.620184 38.964432 22.417969 37.357422 C 21.21564 35.750522 20.615234 34.258249 20.615234 32.880859 C 20.615234 31.175639 21.069332 29.754156 21.976562 28.617188 C 22.883909 27.480448 24.17793 26.912109 25.861328 26.912109 z M 20.615234 41.800781 C 21.577258 42.871931 22.68118 43.824027 23.927734 44.654297 C 31.842293 50.032557 37.274786 53.8044 40.226562 55.96875 C 41.472657 56.88666 42.483828 57.603718 43.259766 58.117188 C 44.035933 58.630987 45.06963 59.155996 46.359375 59.691406 C 47.649119 60.227606 48.851768 60.494141 49.966797 60.494141 L 50 60.494141 L 50.033203 60.494141 C 51.148462 60.494141 52.350881 60.227606 53.640625 59.691406 C 54.930829 59.155996 55.963837 58.630987 56.740234 58.117188 C 57.516631 57.603718 58.527229 56.88666 59.773438 55.96875 C 63.48978 53.27922 68.934913 49.507607 76.105469 44.654297 C 77.352367 43.801857 78.444452 42.849761 79.384766 41.800781 L 79.384766 67.839844 C 79.384766 69.283854 78.871709 70.518915 77.84375 71.546875 C 76.816136 72.574835 75.581422 73.087891 74.138672 73.087891 L 25.863281 73.087891 C 24.420187 73.087891 23.18375 72.574835 22.15625 71.546875 C 21.128521 70.519265 20.615234 69.283734 20.615234 67.839844 L 20.615234 41.800781 z "
             id="path4157-6-5"
             transform="translate(-110,276.6479)" />
          <g
             style="fill:#ffffff"
             id="g6368"
             transform="matrix(0.11486857,0,0,0.11486857,-89.384925,297.26284)" />
          <g
             style="fill:#ffffff"
             id="g6370"
             transform="matrix(0.11486857,0,0,0.11486857,-89.384925,297.26284)" />
          <g
             style="fill:#ffffff"
             id="g6372"
             transform="matrix(0.11486857,0,0,0.11486857,-89.384925,297.26284)" />
          <g
             style="fill:#ffffff"
             id="g6374"
             transform="matrix(0.11486857,0,0,0.11486857,-89.384925,297.26284)" />
          <g
             style="fill:#ffffff"
             id="g6376"
             transform="matrix(0.11486857,0,0,0.11486857,-89.384925,297.26284)" />
          <g
             style="fill:#ffffff"
             id="g6378"
             transform="matrix(0.11486857,0,0,0.11486857,-89.384925,297.26284)" />
          <g
             style="fill:#ffffff"
             id="g6380"
             transform="matrix(0.11486857,0,0,0.11486857,-89.384925,297.26284)" />
          <g
             style="fill:#ffffff"
             id="g6382"
             transform="matrix(0.11486857,0,0,0.11486857,-89.384925,297.26284)" />
          <g
             style="fill:#ffffff"
             id="g6384"
             transform="matrix(0.11486857,0,0,0.11486857,-89.384925,297.26284)" />
          <g
             style="fill:#ffffff"
             id="g6386"
             transform="matrix(0.11486857,0,0,0.11486857,-89.384925,297.26284)" />
          <g
             style="fill:#ffffff"
             id="g6388"
             transform="matrix(0.11486857,0,0,0.11486857,-89.384925,297.26284)" />
          <g
             style="fill:#ffffff"
             id="g6390"
             transform="matrix(0.11486857,0,0,0.11486857,-89.384925,297.26284)" />
          <g
             style="fill:#ffffff"
             id="g6392"
             transform="matrix(0.11486857,0,0,0.11486857,-89.384925,297.26284)" />
          <g
             style="fill:#ffffff"
             id="g6394"
             transform="matrix(0.11486857,0,0,0.11486857,-89.384925,297.26284)" />
          <g
             style="fill:#ffffff"
             id="g6396"
             transform="matrix(0.11486857,0,0,0.11486857,-89.384925,297.26284)" />
        </g>
      </g>
      <g
         id="g4579" />
      <g
         id="g4581" />
      <g
         id="g4583" />
      <g
         id="g4585" />
      <g
         id="g4587" />
      <g
         id="g4589" />
      <g
         id="g4591" />
      <g
         id="g4593" />
      <g
         id="g4595" />
      <g
         id="g4597" />
      <g
         id="g4599" />
      <g
         id="g4601" />
      <g
         id="g4603" />
      <g
         id="g4605" />
      <g
         id="g4607" />
    </g>
  </g>
</svg>
