<?xml version="1.0" encoding="UTF-8" standalone="no"?>
<!-- Created with Inkscape (http://www.inkscape.org/) -->

<svg
   xmlns:dc="http://purl.org/dc/elements/1.1/"
   xmlns:cc="http://creativecommons.org/ns#"
   xmlns:rdf="http://www.w3.org/1999/02/22-rdf-syntax-ns#"
   xmlns:svg="http://www.w3.org/2000/svg"
   xmlns="http://www.w3.org/2000/svg"
   xmlns:sodipodi="http://sodipodi.sourceforge.net/DTD/sodipodi-0.dtd"
   xmlns:inkscape="http://www.inkscape.org/namespaces/inkscape"
   width="100"
   height="100"
   viewBox="0 0 100 100"
   id="svg5307"
   version="1.1"
   inkscape:version="0.91 r13725"
   sodipodi:docname="icon-quora.svg">
  <defs
     id="defs5309" />
  <sodipodi:namedview
     id="base"
     pagecolor="#ffffff"
     bordercolor="#666666"
     borderopacity="1.0"
     inkscape:pageopacity="0.0"
     inkscape:pageshadow="2"
     inkscape:zoom="7.9195959"
     inkscape:cx="69.021615"
     inkscape:cy="40.816075"
     inkscape:document-units="px"
     inkscape:current-layer="g4784"
     showgrid="false"
     units="px"
     inkscape:window-width="1440"
     inkscape:window-height="837"
     inkscape:window-x="-8"
     inkscape:window-y="-8"
     inkscape:window-maximized="1" />
  <metadata
     id="metadata5312">
    <rdf:RDF>
      <cc:Work
         rdf:about="">
        <dc:format>image/svg+xml</dc:format>
        <dc:type
           rdf:resource="http://purl.org/dc/dcmitype/StillImage" />
        <dc:title />
      </cc:Work>
    </rdf:RDF>
  </metadata>
  <g
     inkscape:label="Camada 1"
     inkscape:groupmode="layer"
     id="layer1"
     transform="translate(0,-952.36216)">
    <g
       id="g4615"
       transform="matrix(2.8313845,0,0,2.9033461,151.42891,1167.5203)">
      <g
         id="g4575">
        <g
           id="g4784"
           transform="matrix(0.3531841,0,0,0.34443017,107.46876,-172.83715)">
          <path
             style="opacity:1;fill:#828282;fill-opacity:1;stroke:none;stroke-width:2;stroke-linecap:round;stroke-linejoin:round;stroke-miterlimit:4;stroke-dasharray:none;stroke-opacity:1"
             d="M 50 0 A 49.999999 50 0 0 0 0 50 A 49.999999 50 0 0 0 50 100 A 49.999999 50 0 0 0 100 50 A 49.999999 50 0 0 0 50 0 z M 50.447266 20.433594 C 65.179595 20.433594 77.121244 32.746314 77.121094 47.933594 C 77.121094 56.351094 73.452788 63.883464 67.673828 68.927734 C 69.708448 72.078954 71.88088 74.505859 75.0625 74.505859 C 79.18224 74.505859 79.490234 69.974609 79.490234 69.974609 L 84.228516 69.974609 C 84.228516 69.974609 83.714053 83.566406 71.251953 83.566406 C 65.129183 83.566406 61.217659 79.166074 58.136719 74.271484 C 55.701459 75.026114 53.120936 75.431641 50.447266 75.431641 C 35.714946 75.431641 23.771484 63.121024 23.771484 47.933594 C 23.771484 32.746164 35.714946 20.433594 50.447266 20.433594 z M 50.447266 24.964844 C 41.858086 24.964844 34.894531 35.249034 34.894531 47.933594 C 34.894531 60.618154 41.858086 70.900391 50.447266 70.900391 C 52.202156 70.900391 53.887618 70.470917 55.460938 69.679688 C 53.143028 65.535738 51.122191 61.924996 48.519531 61.322266 C 44.388871 60.365516 42.722656 61.322266 42.722656 61.322266 L 41.074219 57.923828 C 42.825119 56.481888 48.352294 53.591663 54.771484 55.039062 C 58.390054 55.855102 60.92281 58.419448 63.03125 61.429688 C 64.89773 57.640758 65.998047 52.977574 65.998047 47.933594 C 65.998047 35.249034 59.036456 24.964844 50.447266 24.964844 z "
             id="path4157-6-4-9"
             transform="translate(-455.7143,286.64793)" />
          <g
             id="g4706"
             style="fill:#ffffff"
             transform="matrix(0.1476185,0,0,0.1476185,-433.28037,307.08184)" />
          <g
             id="g4708"
             style="fill:#ffffff"
             transform="matrix(0.1476185,0,0,0.1476185,-433.28037,307.08184)" />
          <g
             id="g4710"
             style="fill:#ffffff"
             transform="matrix(0.1476185,0,0,0.1476185,-433.28037,307.08184)" />
          <g
             id="g4712"
             style="fill:#ffffff"
             transform="matrix(0.1476185,0,0,0.1476185,-433.28037,307.08184)" />
          <g
             id="g4714"
             style="fill:#ffffff"
             transform="matrix(0.1476185,0,0,0.1476185,-433.28037,307.08184)" />
          <g
             id="g4716"
             style="fill:#ffffff"
             transform="matrix(0.1476185,0,0,0.1476185,-433.28037,307.08184)" />
          <g
             id="g4718"
             style="fill:#ffffff"
             transform="matrix(0.1476185,0,0,0.1476185,-433.28037,307.08184)" />
          <g
             id="g4720"
             style="fill:#ffffff"
             transform="matrix(0.1476185,0,0,0.1476185,-433.28037,307.08184)" />
          <g
             id="g4722"
             style="fill:#ffffff"
             transform="matrix(0.1476185,0,0,0.1476185,-433.28037,307.08184)" />
          <g
             id="g4724"
             style="fill:#ffffff"
             transform="matrix(0.1476185,0,0,0.1476185,-433.28037,307.08184)" />
          <g
             id="g4726"
             style="fill:#ffffff"
             transform="matrix(0.1476185,0,0,0.1476185,-433.28037,307.08184)" />
          <g
             id="g4728"
             style="fill:#ffffff"
             transform="matrix(0.1476185,0,0,0.1476185,-433.28037,307.08184)" />
          <g
             id="g4730"
             style="fill:#ffffff"
             transform="matrix(0.1476185,0,0,0.1476185,-433.28037,307.08184)" />
          <g
             id="g4732"
             style="fill:#ffffff"
             transform="matrix(0.1476185,0,0,0.1476185,-433.28037,307.08184)" />
          <g
             id="g4734"
             style="fill:#ffffff"
             transform="matrix(0.1476185,0,0,0.1476185,-433.28037,307.08184)" />
        </g>
      </g>
      <g
         id="g4579" />
      <g
         id="g4581" />
      <g
         id="g4583" />
      <g
         id="g4585" />
      <g
         id="g4587" />
      <g
         id="g4589" />
      <g
         id="g4591" />
      <g
         id="g4593" />
      <g
         id="g4595" />
      <g
         id="g4597" />
      <g
         id="g4599" />
      <g
         id="g4601" />
      <g
         id="g4603" />
      <g
         id="g4605" />
      <g
         id="g4607" />
    </g>
  </g>
</svg>
