<?xml version="1.0" encoding="UTF-8" standalone="no"?>
<!-- Created with Inkscape (http://www.inkscape.org/) -->

<svg
   xmlns:dc="http://purl.org/dc/elements/1.1/"
   xmlns:cc="http://creativecommons.org/ns#"
   xmlns:rdf="http://www.w3.org/1999/02/22-rdf-syntax-ns#"
   xmlns:svg="http://www.w3.org/2000/svg"
   xmlns="http://www.w3.org/2000/svg"
   xmlns:sodipodi="http://sodipodi.sourceforge.net/DTD/sodipodi-0.dtd"
   xmlns:inkscape="http://www.inkscape.org/namespaces/inkscape"
   width="100"
   height="100"
   viewBox="0 0 100 100"
   id="svg5307"
   version="1.1"
   inkscape:version="0.91 r13725"
   sodipodi:docname="icon-rss.svg">
  <defs
     id="defs5309" />
  <sodipodi:namedview
     id="base"
     pagecolor="#ffffff"
     bordercolor="#666666"
     borderopacity="1.0"
     inkscape:pageopacity="0.0"
     inkscape:pageshadow="2"
     inkscape:zoom="3.959798"
     inkscape:cx="76.849468"
     inkscape:cy="17.300247"
     inkscape:document-units="px"
     inkscape:current-layer="g4340"
     showgrid="false"
     units="px"
     inkscape:window-width="1440"
     inkscape:window-height="837"
     inkscape:window-x="-8"
     inkscape:window-y="-8"
     inkscape:window-maximized="1" />
  <metadata
     id="metadata5312">
    <rdf:RDF>
      <cc:Work
         rdf:about="">
        <dc:format>image/svg+xml</dc:format>
        <dc:type
           rdf:resource="http://purl.org/dc/dcmitype/StillImage" />
        <dc:title />
      </cc:Work>
    </rdf:RDF>
  </metadata>
  <g
     inkscape:label="Camada 1"
     inkscape:groupmode="layer"
     id="layer1"
     transform="translate(0,-952.36216)">
    <g
       id="g4615"
       transform="matrix(2.8313845,0,0,2.9033461,151.42891,1167.5203)">
      <g
         id="g4575">
        <g
           id="g4340"
           transform="matrix(0.3531841,0,0,0.34443017,-14.632032,-169.39284)">
          <path
             style="opacity:1;fill:#828282;fill-opacity:1;stroke:none;stroke-width:2;stroke-linecap:round;stroke-linejoin:round;stroke-miterlimit:4;stroke-dasharray:none;stroke-opacity:1"
             d="M 50 0 A 49.999997 50 0 0 0 0 50 A 49.999997 50 0 0 0 50 100 A 49.999997 50 0 0 0 100 50 A 49.999997 50 0 0 0 50 0 z M 31.566406 20.699219 L 31.675781 20.699219 C 37.953299 21.010639 43.961212 22.448469 49.699219 25.011719 C 55.437855 27.575469 60.533536 31.097635 64.990234 35.578125 C 69.470345 40.034695 72.993143 45.131011 75.556641 50.869141 C 78.12014 56.607901 79.558098 62.614558 79.869141 68.892578 C 79.916094 69.539718 79.700171 70.102941 79.220703 70.582031 C 78.788565 71.062001 78.239412 71.300781 77.568359 71.300781 L 72.429688 71.300781 C 71.806846 71.300781 71.273671 71.090915 70.830078 70.671875 C 70.387241 70.252695 70.153456 69.744211 70.128906 69.144531 C 69.841653 63.993361 68.632367 59.099721 66.5 54.462891 C 64.367632 49.826821 61.593237 45.802852 58.179688 42.388672 C 54.765382 38.975122 50.741543 36.200729 46.105469 34.068359 C 41.469269 31.936119 36.575245 30.714274 31.423828 30.402344 C 30.824777 30.377924 30.315656 30.144632 29.896484 29.701172 C 29.477437 29.257822 29.267578 28.737852 29.267578 28.138672 L 29.267578 22.998047 C 29.267578 22.327117 29.507363 21.776583 29.986328 21.345703 C 30.41771 20.914323 30.943437 20.699219 31.566406 20.699219 z M 31.566406 39.099609 L 31.746094 39.099609 C 35.57932 39.411029 39.246001 40.374658 42.744141 41.992188 C 46.242281 43.609206 49.345106 45.784335 52.052734 48.515625 C 54.784028 51.223505 56.959148 54.325829 58.576172 57.824219 C 60.193323 61.322109 61.156825 64.987724 61.46875 68.820312 C 61.515702 69.490992 61.313225 70.067025 60.857422 70.546875 C 60.426165 71.050515 59.862436 71.300781 59.167969 71.300781 L 54.316406 71.300781 C 53.71748 71.300781 53.202867 71.103291 52.771484 70.707031 C 52.339975 70.312401 52.100824 69.814524 52.052734 69.214844 C 51.525684 63.728584 49.315271 59.039374 45.421875 55.146484 C 41.528731 51.253584 36.838066 49.042925 31.351562 48.515625 C 30.752513 48.468295 30.254631 48.228515 29.859375 47.796875 C 29.464245 47.365245 29.267578 46.850753 29.267578 46.251953 L 29.267578 41.398438 C 29.267578 40.703718 29.5181 40.141686 30.021484 39.710938 C 30.428447 39.303718 30.943437 39.099609 31.566406 39.099609 z M 36.167969 57.5 C 38.085085 57.5 39.713209 58.172194 41.054688 59.513672 C 42.396038 60.855024 43.068359 62.4834 43.068359 64.400391 C 43.068359 66.317759 42.396038 67.945757 41.054688 69.287109 C 39.712832 70.628587 38.084708 71.300781 36.167969 71.300781 C 34.251482 71.300781 32.621404 70.628587 31.279297 69.287109 C 29.937441 67.945757 29.267578 66.317759 29.267578 64.400391 C 29.267578 62.483526 29.938071 60.855024 31.279297 59.513672 C 32.621404 58.172194 34.250978 57.5 36.167969 57.5 z "
             id="path4157-6"
             transform="translate(-110,276.6479)" />
          <g
             id="g4267"
             style="fill:#ffffff"
             transform="matrix(0.12587765,0,0,0.12587765,-80.732571,297.34393)" />
          <g
             id="g4269"
             style="fill:#ffffff"
             transform="matrix(0.12587765,0,0,0.12587765,-80.732571,297.34393)" />
          <g
             id="g4271"
             style="fill:#ffffff"
             transform="matrix(0.12587765,0,0,0.12587765,-80.732571,297.34393)" />
          <g
             id="g4273"
             style="fill:#ffffff"
             transform="matrix(0.12587765,0,0,0.12587765,-80.732571,297.34393)" />
          <g
             id="g4275"
             style="fill:#ffffff"
             transform="matrix(0.12587765,0,0,0.12587765,-80.732571,297.34393)" />
          <g
             id="g4277"
             style="fill:#ffffff"
             transform="matrix(0.12587765,0,0,0.12587765,-80.732571,297.34393)" />
          <g
             id="g4279"
             style="fill:#ffffff"
             transform="matrix(0.12587765,0,0,0.12587765,-80.732571,297.34393)" />
          <g
             id="g4281"
             style="fill:#ffffff"
             transform="matrix(0.12587765,0,0,0.12587765,-80.732571,297.34393)" />
          <g
             id="g4283"
             style="fill:#ffffff"
             transform="matrix(0.12587765,0,0,0.12587765,-80.732571,297.34393)" />
          <g
             id="g4285"
             style="fill:#ffffff"
             transform="matrix(0.12587765,0,0,0.12587765,-80.732571,297.34393)" />
          <g
             id="g4287"
             style="fill:#ffffff"
             transform="matrix(0.12587765,0,0,0.12587765,-80.732571,297.34393)" />
          <g
             id="g4289"
             style="fill:#ffffff"
             transform="matrix(0.12587765,0,0,0.12587765,-80.732571,297.34393)" />
          <g
             id="g4291"
             style="fill:#ffffff"
             transform="matrix(0.12587765,0,0,0.12587765,-80.732571,297.34393)" />
          <g
             id="g4293"
             style="fill:#ffffff"
             transform="matrix(0.12587765,0,0,0.12587765,-80.732571,297.34393)" />
          <g
             id="g4295"
             style="fill:#ffffff"
             transform="matrix(0.12587765,0,0,0.12587765,-80.732571,297.34393)" />
        </g>
      </g>
      <g
         id="g4579" />
      <g
         id="g4581" />
      <g
         id="g4583" />
      <g
         id="g4585" />
      <g
         id="g4587" />
      <g
         id="g4589" />
      <g
         id="g4591" />
      <g
         id="g4593" />
      <g
         id="g4595" />
      <g
         id="g4597" />
      <g
         id="g4599" />
      <g
         id="g4601" />
      <g
         id="g4603" />
      <g
         id="g4605" />
      <g
         id="g4607" />
    </g>
  </g>
</svg>
